<?xml version="1.0" standalone="no"?>
<!DOCTYPE svg PUBLIC "-//W3C//DTD SVG 20010904//EN"
 "http://www.w3.org/TR/2001/REC-SVG-20010904/DTD/svg10.dtd">
<svg version="1.0" xmlns="http://www.w3.org/2000/svg"
 width="45.000000pt" height="45.000000pt" viewBox="0 0 45.000000 45.000000"
 preserveAspectRatio="xMidYMid meet">
<metadata>
Created by potrace 1.10, written by Peter Selinger 2001-2011
</metadata>
<g transform="translate(0.000000,45.000000) scale(0.100000,-0.100000)"
fill="#000000" stroke="none">
<path d="M196 384 c-4 -9 -2 -22 4 -29 8 -10 6 -15 -10 -20 -25 -8 -60 -61
-60 -90 0 -11 7 -30 15 -42 10 -14 12 -24 5 -28 -5 -3 -10 -17 -10 -30 0 -18
8 -25 38 -33 35 -10 34 -10 -29 -11 -41 -1 -72 -7 -85 -16 -30 -23 -5 -31 83
-25 43 3 113 3 157 0 88 -6 111 1 81 24 -13 10 -43 15 -82 16 -36 0 -65 5 -69
12 -4 7 -3 8 5 4 6 -4 25 -5 41 -1 23 5 30 12 30 30 0 13 -5 27 -10 30 -7 4
-5 14 5 28 8 12 15 31 15 42 0 29 -35 82 -60 90 -16 5 -18 10 -10 20 15 19 1
45 -25 45 -13 0 -26 -7 -29 -16z m50 -104 c8 0 14 -4 14 -10 0 -5 -7 -10 -15
-10 -8 0 -15 -6 -16 -12 0 -10 -2 -10 -6 0 -2 6 -11 12 -19 12 -8 0 -14 5 -14
10 0 6 7 10 15 10 8 0 15 6 16 13 0 10 2 10 6 0 2 -7 11 -13 19 -13z m-66 -35
c10 -12 10 -15 -4 -15 -9 0 -16 7 -16 15 0 8 2 15 4 15 2 0 9 -7 16 -15z m110
-5 c0 -13 -5 -18 -15 -14 -12 5 -13 10 -4 20 15 19 19 18 19 -6z m-10 -50 c0
-5 -25 -10 -55 -10 -30 0 -55 5 -55 10 0 6 25 10 55 10 30 0 55 -4 55 -10z
m20 -40 c0 -6 -32 -10 -75 -10 -43 0 -75 4 -75 10 0 6 32 10 75 10 43 0 75 -4
75 -10z"/>
</g>
</svg>
