<?xml version="1.0" standalone="no"?>
<!DOCTYPE svg PUBLIC "-//W3C//DTD SVG 20010904//EN"
 "http://www.w3.org/TR/2001/REC-SVG-20010904/DTD/svg10.dtd">
<svg version="1.0" xmlns="http://www.w3.org/2000/svg"
 width="45.000000pt" height="45.000000pt" viewBox="0 0 45.000000 45.000000"
 preserveAspectRatio="xMidYMid meet">
<metadata>
Created by potrace 1.10, written by Peter Selinger 2001-2011
</metadata>
<g transform="translate(0.000000,45.000000) scale(0.100000,-0.100000)"
fill="#000000" stroke="none">
<path d="M186 373 c-13 -13 -20 -15 -23 -5 -7 19 -33 14 -33 -7 0 -11 -16 -47
-35 -81 -43 -76 -50 -100 -33 -121 27 -34 52 -31 99 11 24 22 47 40 52 40 17
0 5 -29 -28 -67 -19 -23 -36 -52 -37 -65 -3 -23 -1 -23 100 -26 l102 -3 0 79
c0 93 -25 154 -79 189 -26 18 -30 23 -15 24 16 0 16 2 -4 9 -12 5 -25 16 -28
25 -8 19 -16 19 -38 -2z m-26 -72 c0 -12 -20 -25 -27 -18 -7 7 6 27 18 27 5 0
9 -4 9 -9z m-60 -106 c0 -8 -4 -15 -10 -15 -5 0 -10 7 -10 15 0 8 5 15 10 15
6 0 10 -7 10 -15z"/>
<path d="M309 315 c38 -33 62 -105 64 -194 1 -38 6 -66 11 -64 10 7 1 121 -15
176 -10 38 -63 107 -81 107 -5 0 4 -11 21 -25z"/>
</g>
</svg>
