<?xml version="1.0" standalone="no"?>
<!DOCTYPE svg PUBLIC "-//W3C//DTD SVG 20010904//EN"
 "http://www.w3.org/TR/2001/REC-SVG-20010904/DTD/svg10.dtd">
<svg version="1.0" xmlns="http://www.w3.org/2000/svg"
 width="45.000000pt" height="45.000000pt" viewBox="0 0 45.000000 45.000000"
 preserveAspectRatio="xMidYMid meet">
<metadata>
Created by potrace 1.10, written by Peter Selinger 2001-2011
</metadata>
<g transform="translate(0.000000,45.000000) scale(0.100000,-0.100000)"
fill="#000000" stroke="none">
<path d="M203 384 c-3 -9 -2 -24 3 -33 6 -10 6 -36 -1 -70 l-11 -55 -21 55
c-15 39 -18 58 -10 67 7 9 6 18 -6 30 -16 15 -18 15 -34 0 -14 -14 -14 -19 -3
-33 13 -15 21 -115 10 -115 -11 0 -49 80 -44 93 2 7 -2 20 -11 27 -13 11 -19
11 -32 -3 -14 -14 -14 -18 4 -41 12 -14 24 -47 28 -73 4 -27 14 -60 23 -75 13
-22 14 -32 3 -54 -21 -48 2 -59 123 -59 121 0 141 9 124 57 -9 24 -8 36 5 57
8 14 18 47 22 74 4 26 16 59 28 73 18 23 18 27 4 41 -13 14 -19 14 -32 3 -9
-7 -13 -20 -11 -27 5 -13 -33 -93 -44 -93 -11 0 -3 100 10 115 11 14 11 19 -3
33 -16 15 -18 15 -34 0 -12 -12 -13 -21 -6 -30 8 -9 5 -28 -10 -67 l-21 -55
-11 55 c-7 34 -7 60 -1 70 12 21 1 49 -19 49 -9 0 -18 -7 -22 -16z m32 -154
c3 -5 -1 -10 -10 -10 -9 0 -13 5 -10 10 3 6 8 10 10 10 2 0 7 -4 10 -10z m-65
-10 c0 -5 -7 -10 -16 -10 -8 0 -12 5 -9 10 3 6 10 10 16 10 5 0 9 -4 9 -10z
m135 0 c3 -5 -1 -10 -9 -10 -9 0 -16 5 -16 10 0 6 4 10 9 10 6 0 13 -4 16 -10z
m-5 -41 c27 -6 48 -14 45 -19 -3 -5 -20 -4 -38 1 -41 12 -123 12 -165 0 -19
-6 -32 -6 -32 0 0 5 12 11 28 15 15 3 32 7 37 9 21 7 76 5 125 -6z m-17 -46
c-29 -2 -78 -2 -110 0 -32 2 -8 3 52 3 61 0 87 -1 58 -3z m46 -38 c-13 -13
-195 -13 -208 0 -7 7 28 10 104 10 76 0 111 -3 104 -10z m-104 -30 c28 0 68 3
90 7 l40 7 -30 -14 c-39 -18 -161 -18 -200 0 l-30 14 40 -7 c22 -4 63 -7 90
-7z"/>
</g>
</svg>
