<?xml version="1.0" standalone="no"?>
<!DOCTYPE svg PUBLIC "-//W3C//DTD SVG 20010904//EN"
 "http://www.w3.org/TR/2001/REC-SVG-20010904/DTD/svg10.dtd">
<svg version="1.0" xmlns="http://www.w3.org/2000/svg"
 width="45.000000pt" height="45.000000pt" viewBox="0 0 45.000000 45.000000"
 preserveAspectRatio="xMidYMid meet">
<metadata>
Created by potrace 1.10, written by Peter Selinger 2001-2011
</metadata>
<g transform="translate(0.000000,45.000000) scale(0.100000,-0.100000)"
fill="#000000" stroke="none">
<path d="M100 335 c0 -22 6 -38 15 -41 11 -5 15 -23 15 -74 0 -38 -5 -72 -10
-75 -6 -3 -10 -15 -10 -26 0 -18 8 -19 115 -19 107 0 115 1 115 19 0 11 -4 23
-10 26 -5 3 -10 37 -10 75 0 51 4 69 15 74 9 3 15 19 15 41 0 32 -2 35 -30 35
-16 0 -30 -4 -30 -10 0 -5 -7 -10 -15 -10 -8 0 -15 5 -15 10 0 6 -16 10 -35
10 -19 0 -35 -4 -35 -10 0 -5 -7 -10 -15 -10 -8 0 -15 5 -15 10 0 6 -13 10
-30 10 -28 0 -30 -3 -30 -35z m235 -25 c-3 -6 -52 -10 -110 -10 -58 0 -107 4
-110 10 -4 6 35 10 110 10 75 0 114 -4 110 -10z m-62 -27 c-23 -2 -64 -2 -90
0 -26 2 -8 3 42 3 50 0 71 -1 48 -3z m9 -63 l5 -30 -64 0 -63 0 0 30 c0 30 0
30 59 30 58 0 59 -1 63 -30z m-9 -67 c-23 -2 -64 -2 -90 0 -26 2 -8 3 42 3 50
0 71 -1 48 -3z m5 -20 c-26 -2 -71 -2 -100 0 -29 2 -8 3 47 3 55 0 79 -1 53
-3z"/>
<path d="M80 73 c0 -23 1 -23 145 -23 144 0 145 0 145 23 0 22 -1 22 -145 22
-144 0 -145 0 -145 -22z"/>
</g>
</svg>
