<?xml version="1.0" standalone="no"?>
<!DOCTYPE svg PUBLIC "-//W3C//DTD SVG 20010904//EN"
 "http://www.w3.org/TR/2001/REC-SVG-20010904/DTD/svg10.dtd">
<svg version="1.0" xmlns="http://www.w3.org/2000/svg"
 width="45.000000pt" height="45.000000pt" viewBox="0 0 45.000000 45.000000"
 preserveAspectRatio="xMidYMid meet">
<metadata>
Created by potrace 1.10, written by Peter Selinger 2001-2011
</metadata>
<g transform="translate(0.000000,45.000000) scale(0.100000,-0.100000)"
fill="#000000" stroke="none">
<path d="M196 384 c-3 -9 -4 -20 0 -25 3 -5 -11 -24 -30 -43 -28 -26 -36 -41
-36 -68 0 -20 7 -41 15 -48 11 -9 13 -16 5 -24 -20 -20 -11 -54 18 -64 24 -9
21 -11 -29 -11 -62 -1 -105 -23 -79 -41 8 -5 21 -7 29 -5 19 7 253 7 272 0 8
-2 21 -1 29 5 26 16 -18 39 -80 40 -49 1 -52 3 -27 12 19 7 27 17 27 33 0 13
-5 27 -10 30 -7 4 -5 14 5 28 26 37 19 76 -21 113 -19 19 -33 38 -30 43 11 17
-6 41 -29 41 -13 0 -26 -7 -29 -16z m39 -24 c-5 -8 -11 -8 -17 -2 -6 6 -7 16
-3 22 5 8 11 8 17 2 6 -6 7 -16 3 -22z m56 -73 c6 -10 9 -32 7 -50 l-3 -32
-68 -3 c-62 -3 -68 -1 -76 20 -12 33 6 74 42 97 30 19 33 19 60 3 16 -9 33
-25 38 -35z m-6 -117 c4 -6 -18 -10 -60 -10 -42 0 -64 4 -60 10 3 6 30 10 60
10 30 0 57 -4 60 -10z m-5 -40 c-8 -5 -33 -10 -55 -10 -22 0 -47 5 -55 10 -10
7 6 10 55 10 49 0 65 -3 55 -10z m77 -49 c6 -3 -55 -6 -137 -6 -82 0 -146 2
-144 4 16 16 252 18 281 2z"/>
<path d="M221 293 c-1 -7 -8 -13 -16 -13 -8 0 -15 -4 -15 -10 0 -5 6 -10 14
-10 8 0 17 -6 19 -12 4 -10 6 -10 6 0 1 6 8 12 16 12 8 0 15 5 15 10 0 6 -6
10 -14 10 -8 0 -17 6 -19 13 -4 10 -6 10 -6 0z"/>
</g>
</svg>
