<?xml version="1.0" standalone="no"?>
<!DOCTYPE svg PUBLIC "-//W3C//DTD SVG 20010904//EN"
 "http://www.w3.org/TR/2001/REC-SVG-20010904/DTD/svg10.dtd">
<svg version="1.0" xmlns="http://www.w3.org/2000/svg"
 width="45.000000pt" height="45.000000pt" viewBox="0 0 45.000000 45.000000"
 preserveAspectRatio="xMidYMid meet">
<metadata>
Created by potrace 1.10, written by Peter Selinger 2001-2011
</metadata>
<g transform="translate(0.000000,45.000000) scale(0.100000,-0.100000)"
fill="#000000" stroke="none">
<path d="M186 373 c-13 -13 -20 -15 -23 -5 -7 20 -33 14 -33 -8 0 -11 -14 -42
-30 -69 -59 -96 -60 -141 -4 -155 22 -6 34 0 72 39 26 25 49 45 53 45 15 0 -5
-40 -42 -85 -66 -80 -61 -85 87 -85 l127 0 -6 79 c-3 43 -14 97 -23 120 -18
46 -75 101 -104 101 -11 0 -25 9 -32 20 -16 24 -19 25 -42 3z m48 -33 c34 0
87 -40 108 -82 12 -22 22 -68 25 -113 l6 -75 -107 0 c-61 0 -106 4 -106 10 0
5 13 24 29 42 15 18 33 42 38 53 16 31 25 105 13 105 -5 0 -10 -6 -10 -14 0
-7 -25 -36 -55 -63 -30 -28 -55 -45 -55 -37 0 8 -4 14 -10 14 -5 0 -10 7 -10
15 0 8 -4 15 -10 15 -5 0 -10 -7 -10 -15 0 -8 5 -15 10 -15 6 0 10 -4 10 -10
0 -5 -7 -10 -15 -10 -30 0 -7 76 47 152 11 16 16 33 13 39 -4 6 3 5 15 -3 19
-11 24 -11 34 5 9 15 12 15 14 2 2 -8 14 -15 26 -15z"/>
<path d="M142 308 c-6 -6 -12 -19 -12 -27 0 -13 2 -13 16 1 9 9 15 21 13 27
-3 9 -8 8 -17 -1z"/>
</g>
</svg>
