<?xml version="1.0" standalone="no"?>
<!DOCTYPE svg PUBLIC "-//W3C//DTD SVG 20010904//EN"
 "http://www.w3.org/TR/2001/REC-SVG-20010904/DTD/svg10.dtd">
<svg version="1.0" xmlns="http://www.w3.org/2000/svg"
 width="45.000000pt" height="45.000000pt" viewBox="0 0 45.000000 45.000000"
 preserveAspectRatio="xMidYMid meet">
<metadata>
Created by potrace 1.10, written by Peter Selinger 2001-2011
</metadata>
<g transform="translate(0.000000,45.000000) scale(0.100000,-0.100000)"
fill="#000000" stroke="none">
<path d="M204 385 c-4 -8 -2 -21 3 -28 5 -7 4 -34 -3 -67 -11 -54 -12 -54 -23
-27 -28 68 -29 75 -19 85 16 16 2 42 -22 42 -25 0 -37 -25 -21 -44 7 -8 11
-36 9 -63 l-3 -48 -22 38 c-12 20 -20 43 -17 50 3 8 -2 20 -11 27 -13 11 -19
11 -33 -4 -16 -16 -16 -18 4 -35 15 -12 23 -34 28 -74 4 -31 16 -67 26 -79 17
-21 17 -25 3 -52 -14 -27 -14 -31 3 -43 22 -16 206 -18 235 -3 17 10 18 14 5
43 -12 30 -11 36 5 55 10 13 21 48 25 79 5 40 13 62 28 74 20 17 20 19 4 35
-14 15 -20 15 -33 4 -9 -7 -14 -19 -11 -27 3 -7 -5 -30 -17 -50 l-22 -38 -3
48 c-2 28 2 55 9 63 10 12 9 18 -4 32 -16 15 -18 15 -34 0 -13 -13 -14 -20 -5
-31 10 -11 7 -25 -10 -63 l-22 -49 -11 55 c-6 33 -7 60 -2 67 12 17 1 43 -18
43 -9 0 -18 -7 -21 -15z m30 -16 c-3 -5 -10 -7 -15 -3 -5 3 -7 10 -3 15 3 5
10 7 15 3 5 -3 7 -10 3 -15z m-84 -4 c0 -8 -4 -15 -10 -15 -5 0 -10 7 -10 15
0 8 5 15 10 15 6 0 10 -7 10 -15z m170 -5 c0 -5 -4 -10 -10 -10 -5 0 -10 5
-10 10 0 6 5 10 10 10 6 0 10 -4 10 -10z m-250 -30 c0 -5 -4 -10 -10 -10 -5 0
-10 5 -10 10 0 6 5 10 10 10 6 0 10 -4 10 -10z m330 0 c0 -5 -4 -10 -10 -10
-5 0 -10 5 -10 10 0 6 5 10 10 10 6 0 10 -4 10 -10z m-161 -77 c8 -41 8 -43
-14 -43 -21 0 -22 2 -12 52 6 29 12 48 13 43 2 -6 8 -29 13 -52z m-59 -34 c0
-5 -7 -9 -15 -9 -11 0 -15 11 -15 43 l1 42 14 -34 c8 -18 15 -37 15 -42z m120
31 c0 -30 -4 -40 -16 -40 -11 0 -14 5 -10 16 3 9 9 27 12 40 9 35 14 29 14
-16z m-179 -32 c8 -14 6 -18 -10 -18 -14 0 -20 9 -23 36 -4 33 -3 34 10 18 7
-11 18 -27 23 -36z m241 17 c-3 -27 -9 -35 -24 -35 -19 0 -19 2 -6 23 8 12 18
28 22 35 11 19 12 15 8 -23z m-14 -57 c-4 -10 -37 -13 -123 -13 -86 0 -119 3
-122 13 -4 9 25 12 122 12 97 0 126 -3 123 -12z m-28 -40 c0 -10 -26 -13 -95
-13 -69 0 -95 3 -95 13 0 9 26 12 95 12 69 0 95 -3 95 -12z m13 -48 c5 -19 0
-20 -109 -20 -88 0 -114 3 -114 13 0 24 12 27 116 27 93 0 102 -2 107 -20z"/>
</g>
</svg>
