<?xml version="1.0" standalone="no"?>
<!DOCTYPE svg PUBLIC "-//W3C//DTD SVG 20010904//EN"
 "http://www.w3.org/TR/2001/REC-SVG-20010904/DTD/svg10.dtd">
<svg version="1.0" xmlns="http://www.w3.org/2000/svg"
 width="45.000000pt" height="45.000000pt" viewBox="0 0 45.000000 45.000000"
 preserveAspectRatio="xMidYMid meet">
<metadata>
Created by potrace 1.10, written by Peter Selinger 2001-2011
</metadata>
<g transform="translate(0.000000,45.000000) scale(0.100000,-0.100000)"
fill="#000000" stroke="none">
<path d="M100 336 c0 -18 7 -39 15 -46 17 -14 22 -135 5 -145 -6 -3 -10 -15
-10 -26 0 -10 -7 -19 -15 -19 -9 0 -15 -9 -15 -25 l0 -25 145 0 145 0 0 25 c0
16 -6 25 -15 25 -8 0 -15 9 -15 19 0 11 -4 23 -10 26 -16 10 -12 131 5 149 8
8 15 28 15 45 0 28 -3 31 -30 31 -16 0 -30 -4 -30 -10 0 -5 -7 -10 -15 -10 -8
0 -15 5 -15 10 0 6 -16 10 -35 10 -19 0 -35 -4 -35 -10 0 -5 -7 -10 -15 -10
-8 0 -15 5 -15 10 0 6 -13 10 -30 10 -27 0 -30 -3 -30 -34z m45 4 c8 -14 41
-13 65 2 15 10 22 10 32 0 15 -15 54 -16 63 -2 9 15 25 12 25 -5 0 -12 -18
-15 -105 -15 -87 0 -105 3 -105 15 0 17 16 20 25 5z m133 -47 c-26 -2 -71 -2
-100 0 -29 2 -8 3 47 3 55 0 79 -1 53 -3z m22 -70 l0 -58 -75 0 -75 0 0 58 0
57 75 0 75 0 0 -57z m-27 -80 c-23 -2 -64 -2 -90 0 -26 2 -8 3 42 3 50 0 71
-1 48 -3z m47 -33 c0 -6 -38 -10 -95 -10 -57 0 -95 4 -95 10 0 6 38 10 95 10
57 0 95 -4 95 -10z m-27 -37 c-34 -2 -93 -2 -130 0 -37 2 -10 3 62 3 72 0 102
-1 68 -3z"/>
</g>
</svg>
